# xmcd CD database file
# Copyright (C) 1995-1998 Ti Kan
#
# Track frame offsets:
#	150
#	13627
#	25992
#	39860
#	55365
#	71250
#	83407
#	94967
#	108375
#	121787
#	134165
#	146610
#	158185
#	171259
#	184525
#	196960
#	210087
#	220997
#
# Disc length: 3134 seconds
#
# Revision: 3
# Processed by: cddbd v1.4PL0 Copyright (c) Steve Scherf et al.
# Submitted via: CDex 1.30Release
#
DISCID=f20c3c12
DTITLE=The Carter Family - Longing For Old Virginia: Their Complete Victor R
DTITLE=ecordings 1934
DYEAR=1900
DGENRE=Country
TTITLE0=Darling Daisies
TTITLE1=East Virgina Blues
TTITLE2=Lover's Return
TTITLE3=It'll Aggravate Your Soul
TTITLE4=Hello Central, Give Me Heaven
TTITLE5=I'm Working On A Building
TTITLE6=On A Hill Lone And Gray
TTITLE7=You've Been Fooling Me Baby
TTITLE8=Longing For Old Virginia
TTITLE9=March Winds Gonna Blow My Blues All Away
TTITLE10=There'll Be Joy, Joy, Joy
TTITLE11=Home In Tennessee
TTITLE12=Are You Tired Of Me My Darling?
TTITLE13=I Cannot Be Your Sweetheart
TTITLE14=My Heart's Tonight In Texas
TTITLE15=There's No Hiding Place Down There
TTITLE16=The Cowboy's Wild Song To His Herd
TTITLE17=The Evening Bells Are Ringing
EXTD=ID3G:   2
EXTT0=
EXTT1=
EXTT2=
EXTT3=
EXTT4=
EXTT5=
EXTT6=
EXTT7=
EXTT8=
EXTT9=
EXTT10=
EXTT11=
EXTT12=
EXTT13=
EXTT14=
EXTT15=
EXTT16=
EXTT17=
PLAYORDER=
